<svg width="180" height="50" fill="none" xmlns="http://www.w3.org/2000/svg"><path fill-rule="evenodd" clip-rule="evenodd" d="M153 9c-7.2 0-11.7 3.6-13.5 10.8 2.7-3.6 5.85-4.95 9.45-4.05 2.054.514 3.522 2.004 5.147 3.653 2.647 2.687 5.711 5.797 12.403 5.797 7.2 0 11.7-3.6 13.5-10.8-2.7 3.6-5.85 4.95-9.45 4.05-2.054-.514-3.522-2.004-5.147-3.653C162.756 12.11 159.692 9 153 9zm-13.5 16.2c-7.2 0-11.7 3.6-13.5 10.8 2.7-3.6 5.85-4.95 9.45-4.05 2.054.514 3.522 2.004 5.147 3.653C143.244 38.29 146.308 41.4 153 41.4c7.2 0 11.7-3.6 13.5-10.8-2.7 3.6-5.85 4.95-9.45 4.05-2.054-.514-3.522-2.004-5.147-3.653-2.647-2.687-5.711-5.797-12.403-5.797z" fill="url(#paint0_linear)"/><path d="M25 0C11.192 0 0 11.192 0 25s11.192 25 25 25 25-11.192 25-25S38.808 0 25 0zM11.108 38.888c-3.77-3.771-5.65-8.696-5.708-13.638L24.75 44.6c-4.942-.058-9.867-1.938-13.642-5.712zm18.238 5.254L5.858 20.654C7.838 11.9 15.65 5.358 25 5.358c6.538 0 12.313 3.209 15.883 8.121l-2.733 2.313C35.242 11.646 30.438 8.929 25 8.929c-6.988 0-12.93 4.488-15.137 10.73l20.483 20.483c5.141-1.821 9.083-6.175 10.317-11.567h-8.521V25h12.5c0 9.354-6.542 17.163-15.296 19.142z" fill="#639"/><g clip-path="url(#clip0)"><path d="M63 25v25h50.002V-.002H63V25zm40.295-1.993c1.269.318 2.238.882 3.127 1.802.461.492 1.143 1.389 1.198 1.603.016.063-2.158 1.524-3.476 2.341-.047.032-.239-.174-.453-.492-.643-.937-1.318-1.341-2.35-1.412-1.515-.103-2.5.69-2.484 2.015 0 .39.055.62.214.938.334.69.953 1.103 2.897 1.945 3.58 1.54 5.111 2.555 6.062 4 1.063 1.611 1.302 4.183.58 6.096-.794 2.08-2.762 3.492-5.531 3.96-.857.151-2.889.128-3.81-.039-2.007-.357-3.912-1.349-5.087-2.65-.46-.508-1.357-1.834-1.302-1.93.024-.031.23-.159.461-.294l1.857-1.07 1.438-.834.302.446c.42.643 1.34 1.523 1.896 1.817 1.596.841 3.786.722 4.865-.246.461-.42.651-.857.651-1.5 0-.58-.07-.834-.373-1.27-.389-.554-1.182-1.023-3.437-2-2.58-1.11-3.69-1.801-4.706-2.897-.588-.635-1.143-1.65-1.374-2.5-.19-.706-.238-2.476-.087-3.19.53-2.5 2.412-4.23 5.127-4.746.881-.167 2.93-.104 3.794.11l.001-.003zm-11.739 2.086l.016 2.047h-6.508v18.492h-4.603V27.14h-6.508v-2.008l.055-2.062c.023-.031 3.984-.047 8.786-.04l8.738.024.024 2.04z" fill="#007ACC"/></g><defs><linearGradient id="paint0_linear" x1="124.5" y1="9" x2="180" y2="41" gradientUnits="userSpaceOnUse"><stop stop-color="#2298BD"/><stop offset="1" stop-color="#0ED7B5"/></linearGradient><clipPath id="clip0"><path fill="#fff" transform="translate(63)" d="M0 0h50v50H0z"/></clipPath></defs></svg>